<svg width="92" height="80" viewBox="0 0 92 80" fill="none" xmlns="http://www.w3.org/2000/svg">
<g filter="url(#filter0_d_1210_2813)">
<mask id="path-1-outside-1_1210_2813" maskUnits="userSpaceOnUse" x="4" y="0" width="84" height="72" fill="black">
<rect fill="white" x="4" width="84" height="72"/>
<path d="M87.0008 7.82165V64.1784C86.958 64.2802 86.8939 64.3753 86.8725 64.4816C86.0487 68.533 83.2203 70.9728 79.3028 70.9977C77.8885 71.0068 76.4743 70.9977 75.0579 70.9977C54.3194 70.9977 33.5808 71 12.8401 70.9977C8.26792 70.9977 5.0094 67.6661 5.00512 62.9471C4.99656 44.9786 4.99656 27.0146 5.02223 9.05063C5.02223 8.13399 5.172 7.18113 5.44372 6.31202C6.48782 2.97135 9.27564 1 12.8444 1C34.9437 1 57.0451 1 79.1444 1C79.3584 1 79.5724 1 79.7842 1.00905C82.7346 1.16975 84.8891 2.66354 86.2178 5.43611C86.5729 6.17848 86.7441 7.02044 86.9987 7.81712L87.0008 7.82165ZM19.6417 67.562C19.6417 64.1919 19.6417 60.9124 19.6417 57.6328C19.6417 55.0594 19.6246 52.4838 19.6481 49.9104C19.6717 47.3958 21.1629 45.8409 23.5164 45.8341C25.2516 45.8296 26.9867 45.8319 28.7198 45.8341C31.2894 45.8364 32.725 47.3574 32.7271 50.0914C32.7314 55.58 32.7271 61.0663 32.7271 66.5548C32.7271 66.883 32.7271 67.2112 32.7271 67.5575H37.5218C37.5218 67.2067 37.5218 66.9034 37.5218 66.6001C37.5218 63.7144 37.5176 60.8286 37.5261 57.9452C37.5261 57.5242 37.5539 57.0964 37.6181 56.6822C37.8385 55.2496 38.6815 54.2673 39.8047 53.4955C38.4333 50.0009 37.0832 46.5607 35.7332 43.1227C34.4987 39.9789 34.9287 37.9125 37.2351 35.5632C40.1107 32.6344 42.8172 29.5586 44.6016 25.7087C44.8819 25.1044 45.3611 24.7807 46.0158 24.7807C46.7026 24.7807 47.1583 25.1315 47.4878 25.754C48.0377 26.786 48.4998 27.9064 49.208 28.8004C51.1421 31.2425 53.1383 33.6371 55.2009 35.9593C56.8975 37.8695 57.4217 40.1374 56.4931 42.5795C56.016 43.8356 55.5154 45.085 55.0276 46.3366C54.0969 48.7335 53.1683 51.1303 52.2269 53.5498C53.9728 54.6498 54.5333 56.2929 54.4927 58.3164C54.4349 61.0867 54.4777 63.8592 54.4777 66.6318V67.5371H58.9643C58.9643 67.1614 58.9643 66.8536 58.9643 66.5435C58.9643 62.4695 58.9215 58.3956 58.9985 54.3239C59.0157 53.4774 59.281 52.4634 59.7816 51.841C60.3892 51.085 60.5198 50.3653 60.4919 49.4758C60.4384 47.6901 61.1766 46.3932 62.6743 45.5535C62.8882 45.4335 63.0958 45.0714 63.1065 44.8134C63.1535 43.684 63.1172 42.5523 63.13 41.4207C63.1428 40.298 63.759 39.5783 64.6919 39.5602C65.6525 39.5421 66.3093 40.2845 66.3265 41.441C66.3436 42.5433 66.3521 43.6478 66.32 44.75C66.3072 45.2095 66.4377 45.4471 66.8442 45.6418C67.8734 46.1352 68.5773 46.9952 68.8126 48.1631C68.9602 48.8987 68.8854 49.6818 68.9538 50.44C68.9795 50.7229 69.0544 51.0783 69.2341 51.2525C70.1734 52.1624 70.5071 53.2827 70.5007 54.5977C70.4793 58.6151 70.4943 62.6302 70.4943 66.6476C70.4943 66.9487 70.4943 67.2474 70.4943 67.6073C73.4533 67.6073 76.3031 67.6118 79.1551 67.6073C82.0628 67.6028 83.7958 65.7763 83.7958 62.7117C83.7979 50.0394 83.7958 37.3671 83.7958 24.6924C83.7958 24.3937 83.7958 24.0972 83.7958 23.8007H8.20587C8.20587 24.1447 8.20587 24.448 8.20587 24.7513C8.20587 37.3671 8.20587 49.9828 8.20587 62.6008C8.20587 62.8837 8.19945 63.1667 8.21871 63.4496C8.3535 65.4956 9.89183 67.424 11.7853 67.5281C14.3613 67.6707 16.948 67.5643 19.6417 67.5643V67.562ZM8.21657 20.2948H83.7851C83.7851 16.3272 83.7851 12.423 83.783 8.52102C83.783 8.38069 83.7551 8.24037 83.7295 8.1023C83.2973 5.76882 81.6113 4.39498 79.1509 4.39498C57.0494 4.39498 34.9501 4.39498 12.8487 4.39498C12.6347 4.39498 12.4208 4.39498 12.2089 4.4063C10.1186 4.50815 8.28289 6.3007 8.23796 8.52328C8.16094 12.423 8.21657 16.3272 8.21657 20.2971V20.2948ZM44.4005 52.9478C44.4005 50.2069 44.394 47.4954 44.4047 44.7862C44.409 43.6206 45.0552 42.8986 46.0329 42.9167C46.9743 42.9326 47.5905 43.641 47.5991 44.7681C47.6119 46.8028 47.6033 48.8398 47.6033 50.8746C47.6033 51.5739 47.6033 52.2755 47.6033 53.0949C48.2024 52.8957 48.8357 53.4095 49.1759 52.52C50.6158 48.7538 52.0921 45.0012 53.547 41.2419C53.9685 40.1532 53.7545 39.2026 52.9501 38.3901C52.274 37.7066 51.5743 37.0457 50.9581 36.3056C49.2701 34.2776 47.6226 32.2135 45.9388 30.1403C45.9302 30.1516 45.834 30.2421 45.7633 30.353C43.8977 33.2704 41.6469 35.8303 39.2335 38.2407C38.1744 39.2977 38.0118 40.0876 38.5659 41.5021C39.9459 45.0216 41.3645 48.523 42.6888 52.0651C43.0312 52.9794 43.4826 53.2442 44.4026 52.9523L44.4005 52.9478ZM51.2791 67.5779V66.745C51.2791 63.8343 51.2791 60.926 51.2791 58.0153C51.2791 56.7501 51.0052 56.4468 49.8327 56.4446C47.2739 56.4378 44.715 56.4378 42.1561 56.4446C41.0157 56.4468 40.7269 56.7547 40.7247 57.9452C40.7205 60.9124 40.7226 63.8773 40.7247 66.8446C40.7247 67.0867 40.7547 67.3266 40.7718 67.5801H51.2769L51.2791 67.5779ZM29.5242 67.5665C29.5242 66.5684 29.5242 65.6676 29.5242 64.7646C29.5242 59.9029 29.5242 55.0391 29.5242 50.1775C29.5242 49.6773 29.5649 49.2065 28.8588 49.2155C27.0723 49.2404 25.2837 49.2042 23.4993 49.2495C23.2789 49.254 22.9109 49.5731 22.881 49.7859C22.7975 50.4128 22.851 51.0601 22.851 51.755C23.6084 51.755 24.246 51.7459 24.8836 51.755C25.994 51.7731 26.7129 52.4272 26.7257 53.4163C26.7407 54.437 25.9983 55.1251 24.8493 55.1432C24.2139 55.1522 23.5785 55.1432 22.9131 55.1432V57.2368C23.6747 57.2368 24.3658 57.2119 25.0569 57.2435C26.0389 57.2865 26.7172 57.9927 26.7257 58.9297C26.7343 59.8962 26.0261 60.6 24.9991 60.6249C24.3145 60.6408 23.6277 60.6272 22.9109 60.6272V62.7593C23.6148 62.7593 24.2503 62.7479 24.8879 62.7615C26.009 62.7864 26.7172 63.436 26.7279 64.4273C26.7407 65.4481 26.0068 66.1248 24.8472 66.1474C24.2139 66.1588 23.5785 66.1474 22.9045 66.1474V67.5575H29.5242V67.5665ZM67.2914 67.562C67.2914 63.1033 67.2871 58.7509 67.2978 54.3985C67.2978 53.878 67.0432 53.801 66.6388 53.8033C65.4107 53.8169 64.1826 53.8463 62.9567 53.792C62.2956 53.7626 62.1522 54.0228 62.1565 54.6724C62.18 58.7441 62.1672 62.8181 62.1715 66.8898C62.1715 67.1071 62.2036 67.3244 62.2228 67.562H67.2914ZM65.8258 50.3721C65.7124 49.7836 65.7659 48.9937 65.4749 48.8059C65.0834 48.5524 64.3046 48.5705 63.9216 48.8398C63.6413 49.0367 63.7312 49.8244 63.652 50.3721H65.8258Z"/>
</mask>
<path d="M87.0008 7.82165V64.1784C86.958 64.2802 86.8939 64.3753 86.8725 64.4816C86.0487 68.533 83.2203 70.9728 79.3028 70.9977C77.8885 71.0068 76.4743 70.9977 75.0579 70.9977C54.3194 70.9977 33.5808 71 12.8401 70.9977C8.26792 70.9977 5.0094 67.6661 5.00512 62.9471C4.99656 44.9786 4.99656 27.0146 5.02223 9.05063C5.02223 8.13399 5.172 7.18113 5.44372 6.31202C6.48782 2.97135 9.27564 1 12.8444 1C34.9437 1 57.0451 1 79.1444 1C79.3584 1 79.5724 1 79.7842 1.00905C82.7346 1.16975 84.8891 2.66354 86.2178 5.43611C86.5729 6.17848 86.7441 7.02044 86.9987 7.81712L87.0008 7.82165ZM19.6417 67.562C19.6417 64.1919 19.6417 60.9124 19.6417 57.6328C19.6417 55.0594 19.6246 52.4838 19.6481 49.9104C19.6717 47.3958 21.1629 45.8409 23.5164 45.8341C25.2516 45.8296 26.9867 45.8319 28.7198 45.8341C31.2894 45.8364 32.725 47.3574 32.7271 50.0914C32.7314 55.58 32.7271 61.0663 32.7271 66.5548C32.7271 66.883 32.7271 67.2112 32.7271 67.5575H37.5218C37.5218 67.2067 37.5218 66.9034 37.5218 66.6001C37.5218 63.7144 37.5176 60.8286 37.5261 57.9452C37.5261 57.5242 37.5539 57.0964 37.6181 56.6822C37.8385 55.2496 38.6815 54.2673 39.8047 53.4955C38.4333 50.0009 37.0832 46.5607 35.7332 43.1227C34.4987 39.9789 34.9287 37.9125 37.2351 35.5632C40.1107 32.6344 42.8172 29.5586 44.6016 25.7087C44.8819 25.1044 45.3611 24.7807 46.0158 24.7807C46.7026 24.7807 47.1583 25.1315 47.4878 25.754C48.0377 26.786 48.4998 27.9064 49.208 28.8004C51.1421 31.2425 53.1383 33.6371 55.2009 35.9593C56.8975 37.8695 57.4217 40.1374 56.4931 42.5795C56.016 43.8356 55.5154 45.085 55.0276 46.3366C54.0969 48.7335 53.1683 51.1303 52.2269 53.5498C53.9728 54.6498 54.5333 56.2929 54.4927 58.3164C54.4349 61.0867 54.4777 63.8592 54.4777 66.6318V67.5371H58.9643C58.9643 67.1614 58.9643 66.8536 58.9643 66.5435C58.9643 62.4695 58.9215 58.3956 58.9985 54.3239C59.0157 53.4774 59.281 52.4634 59.7816 51.841C60.3892 51.085 60.5198 50.3653 60.4919 49.4758C60.4384 47.6901 61.1766 46.3932 62.6743 45.5535C62.8882 45.4335 63.0958 45.0714 63.1065 44.8134C63.1535 43.684 63.1172 42.5523 63.13 41.4207C63.1428 40.298 63.759 39.5783 64.6919 39.5602C65.6525 39.5421 66.3093 40.2845 66.3265 41.441C66.3436 42.5433 66.3521 43.6478 66.32 44.75C66.3072 45.2095 66.4377 45.4471 66.8442 45.6418C67.8734 46.1352 68.5773 46.9952 68.8126 48.1631C68.9602 48.8987 68.8854 49.6818 68.9538 50.44C68.9795 50.7229 69.0544 51.0783 69.2341 51.2525C70.1734 52.1624 70.5071 53.2827 70.5007 54.5977C70.4793 58.6151 70.4943 62.6302 70.4943 66.6476C70.4943 66.9487 70.4943 67.2474 70.4943 67.6073C73.4533 67.6073 76.3031 67.6118 79.1551 67.6073C82.0628 67.6028 83.7958 65.7763 83.7958 62.7117C83.7979 50.0394 83.7958 37.3671 83.7958 24.6924C83.7958 24.3937 83.7958 24.0972 83.7958 23.8007H8.20587C8.20587 24.1447 8.20587 24.448 8.20587 24.7513C8.20587 37.3671 8.20587 49.9828 8.20587 62.6008C8.20587 62.8837 8.19945 63.1667 8.21871 63.4496C8.3535 65.4956 9.89183 67.424 11.7853 67.5281C14.3613 67.6707 16.948 67.5643 19.6417 67.5643V67.562ZM8.21657 20.2948H83.7851C83.7851 16.3272 83.7851 12.423 83.783 8.52102C83.783 8.38069 83.7551 8.24037 83.7295 8.1023C83.2973 5.76882 81.6113 4.39498 79.1509 4.39498C57.0494 4.39498 34.9501 4.39498 12.8487 4.39498C12.6347 4.39498 12.4208 4.39498 12.2089 4.4063C10.1186 4.50815 8.28289 6.3007 8.23796 8.52328C8.16094 12.423 8.21657 16.3272 8.21657 20.2971V20.2948ZM44.4005 52.9478C44.4005 50.2069 44.394 47.4954 44.4047 44.7862C44.409 43.6206 45.0552 42.8986 46.0329 42.9167C46.9743 42.9326 47.5905 43.641 47.5991 44.7681C47.6119 46.8028 47.6033 48.8398 47.6033 50.8746C47.6033 51.5739 47.6033 52.2755 47.6033 53.0949C48.2024 52.8957 48.8357 53.4095 49.1759 52.52C50.6158 48.7538 52.0921 45.0012 53.547 41.2419C53.9685 40.1532 53.7545 39.2026 52.9501 38.3901C52.274 37.7066 51.5743 37.0457 50.9581 36.3056C49.2701 34.2776 47.6226 32.2135 45.9388 30.1403C45.9302 30.1516 45.834 30.2421 45.7633 30.353C43.8977 33.2704 41.6469 35.8303 39.2335 38.2407C38.1744 39.2977 38.0118 40.0876 38.5659 41.5021C39.9459 45.0216 41.3645 48.523 42.6888 52.0651C43.0312 52.9794 43.4826 53.2442 44.4026 52.9523L44.4005 52.9478ZM51.2791 67.5779V66.745C51.2791 63.8343 51.2791 60.926 51.2791 58.0153C51.2791 56.7501 51.0052 56.4468 49.8327 56.4446C47.2739 56.4378 44.715 56.4378 42.1561 56.4446C41.0157 56.4468 40.7269 56.7547 40.7247 57.9452C40.7205 60.9124 40.7226 63.8773 40.7247 66.8446C40.7247 67.0867 40.7547 67.3266 40.7718 67.5801H51.2769L51.2791 67.5779ZM29.5242 67.5665C29.5242 66.5684 29.5242 65.6676 29.5242 64.7646C29.5242 59.9029 29.5242 55.0391 29.5242 50.1775C29.5242 49.6773 29.5649 49.2065 28.8588 49.2155C27.0723 49.2404 25.2837 49.2042 23.4993 49.2495C23.2789 49.254 22.9109 49.5731 22.881 49.7859C22.7975 50.4128 22.851 51.0601 22.851 51.755C23.6084 51.755 24.246 51.7459 24.8836 51.755C25.994 51.7731 26.7129 52.4272 26.7257 53.4163C26.7407 54.437 25.9983 55.1251 24.8493 55.1432C24.2139 55.1522 23.5785 55.1432 22.9131 55.1432V57.2368C23.6747 57.2368 24.3658 57.2119 25.0569 57.2435C26.0389 57.2865 26.7172 57.9927 26.7257 58.9297C26.7343 59.8962 26.0261 60.6 24.9991 60.6249C24.3145 60.6408 23.6277 60.6272 22.9109 60.6272V62.7593C23.6148 62.7593 24.2503 62.7479 24.8879 62.7615C26.009 62.7864 26.7172 63.436 26.7279 64.4273C26.7407 65.4481 26.0068 66.1248 24.8472 66.1474C24.2139 66.1588 23.5785 66.1474 22.9045 66.1474V67.5575H29.5242V67.5665ZM67.2914 67.562C67.2914 63.1033 67.2871 58.7509 67.2978 54.3985C67.2978 53.878 67.0432 53.801 66.6388 53.8033C65.4107 53.8169 64.1826 53.8463 62.9567 53.792C62.2956 53.7626 62.1522 54.0228 62.1565 54.6724C62.18 58.7441 62.1672 62.8181 62.1715 66.8898C62.1715 67.1071 62.2036 67.3244 62.2228 67.562H67.2914ZM65.8258 50.3721C65.7124 49.7836 65.7659 48.9937 65.4749 48.8059C65.0834 48.5524 64.3046 48.5705 63.9216 48.8398C63.6413 49.0367 63.7312 49.8244 63.652 50.3721H65.8258Z" fill="#FD6F00"/>
<path d="M87.0008 7.82165V64.1784C86.958 64.2802 86.8939 64.3753 86.8725 64.4816C86.0487 68.533 83.2203 70.9728 79.3028 70.9977C77.8885 71.0068 76.4743 70.9977 75.0579 70.9977C54.3194 70.9977 33.5808 71 12.8401 70.9977C8.26792 70.9977 5.0094 67.6661 5.00512 62.9471C4.99656 44.9786 4.99656 27.0146 5.02223 9.05063C5.02223 8.13399 5.172 7.18113 5.44372 6.31202C6.48782 2.97135 9.27564 1 12.8444 1C34.9437 1 57.0451 1 79.1444 1C79.3584 1 79.5724 1 79.7842 1.00905C82.7346 1.16975 84.8891 2.66354 86.2178 5.43611C86.5729 6.17848 86.7441 7.02044 86.9987 7.81712L87.0008 7.82165ZM19.6417 67.562C19.6417 64.1919 19.6417 60.9124 19.6417 57.6328C19.6417 55.0594 19.6246 52.4838 19.6481 49.9104C19.6717 47.3958 21.1629 45.8409 23.5164 45.8341C25.2516 45.8296 26.9867 45.8319 28.7198 45.8341C31.2894 45.8364 32.725 47.3574 32.7271 50.0914C32.7314 55.58 32.7271 61.0663 32.7271 66.5548C32.7271 66.883 32.7271 67.2112 32.7271 67.5575H37.5218C37.5218 67.2067 37.5218 66.9034 37.5218 66.6001C37.5218 63.7144 37.5176 60.8286 37.5261 57.9452C37.5261 57.5242 37.5539 57.0964 37.6181 56.6822C37.8385 55.2496 38.6815 54.2673 39.8047 53.4955C38.4333 50.0009 37.0832 46.5607 35.7332 43.1227C34.4987 39.9789 34.9287 37.9125 37.2351 35.5632C40.1107 32.6344 42.8172 29.5586 44.6016 25.7087C44.8819 25.1044 45.3611 24.7807 46.0158 24.7807C46.7026 24.7807 47.1583 25.1315 47.4878 25.754C48.0377 26.786 48.4998 27.9064 49.208 28.8004C51.1421 31.2425 53.1383 33.6371 55.2009 35.9593C56.8975 37.8695 57.4217 40.1374 56.4931 42.5795C56.016 43.8356 55.5154 45.085 55.0276 46.3366C54.0969 48.7335 53.1683 51.1303 52.2269 53.5498C53.9728 54.6498 54.5333 56.2929 54.4927 58.3164C54.4349 61.0867 54.4777 63.8592 54.4777 66.6318V67.5371H58.9643C58.9643 67.1614 58.9643 66.8536 58.9643 66.5435C58.9643 62.4695 58.9215 58.3956 58.9985 54.3239C59.0157 53.4774 59.281 52.4634 59.7816 51.841C60.3892 51.085 60.5198 50.3653 60.4919 49.4758C60.4384 47.6901 61.1766 46.3932 62.6743 45.5535C62.8882 45.4335 63.0958 45.0714 63.1065 44.8134C63.1535 43.684 63.1172 42.5523 63.13 41.4207C63.1428 40.298 63.759 39.5783 64.6919 39.5602C65.6525 39.5421 66.3093 40.2845 66.3265 41.441C66.3436 42.5433 66.3521 43.6478 66.32 44.75C66.3072 45.2095 66.4377 45.4471 66.8442 45.6418C67.8734 46.1352 68.5773 46.9952 68.8126 48.1631C68.9602 48.8987 68.8854 49.6818 68.9538 50.44C68.9795 50.7229 69.0544 51.0783 69.2341 51.2525C70.1734 52.1624 70.5071 53.2827 70.5007 54.5977C70.4793 58.6151 70.4943 62.6302 70.4943 66.6476C70.4943 66.9487 70.4943 67.2474 70.4943 67.6073C73.4533 67.6073 76.3031 67.6118 79.1551 67.6073C82.0628 67.6028 83.7958 65.7763 83.7958 62.7117C83.7979 50.0394 83.7958 37.3671 83.7958 24.6924C83.7958 24.3937 83.7958 24.0972 83.7958 23.8007H8.20587C8.20587 24.1447 8.20587 24.448 8.20587 24.7513C8.20587 37.3671 8.20587 49.9828 8.20587 62.6008C8.20587 62.8837 8.19945 63.1667 8.21871 63.4496C8.3535 65.4956 9.89183 67.424 11.7853 67.5281C14.3613 67.6707 16.948 67.5643 19.6417 67.5643V67.562ZM8.21657 20.2948H83.7851C83.7851 16.3272 83.7851 12.423 83.783 8.52102C83.783 8.38069 83.7551 8.24037 83.7295 8.1023C83.2973 5.76882 81.6113 4.39498 79.1509 4.39498C57.0494 4.39498 34.9501 4.39498 12.8487 4.39498C12.6347 4.39498 12.4208 4.39498 12.2089 4.4063C10.1186 4.50815 8.28289 6.3007 8.23796 8.52328C8.16094 12.423 8.21657 16.3272 8.21657 20.2971V20.2948ZM44.4005 52.9478C44.4005 50.2069 44.394 47.4954 44.4047 44.7862C44.409 43.6206 45.0552 42.8986 46.0329 42.9167C46.9743 42.9326 47.5905 43.641 47.5991 44.7681C47.6119 46.8028 47.6033 48.8398 47.6033 50.8746C47.6033 51.5739 47.6033 52.2755 47.6033 53.0949C48.2024 52.8957 48.8357 53.4095 49.1759 52.52C50.6158 48.7538 52.0921 45.0012 53.547 41.2419C53.9685 40.1532 53.7545 39.2026 52.9501 38.3901C52.274 37.7066 51.5743 37.0457 50.9581 36.3056C49.2701 34.2776 47.6226 32.2135 45.9388 30.1403C45.9302 30.1516 45.834 30.2421 45.7633 30.353C43.8977 33.2704 41.6469 35.8303 39.2335 38.2407C38.1744 39.2977 38.0118 40.0876 38.5659 41.5021C39.9459 45.0216 41.3645 48.523 42.6888 52.0651C43.0312 52.9794 43.4826 53.2442 44.4026 52.9523L44.4005 52.9478ZM51.2791 67.5779V66.745C51.2791 63.8343 51.2791 60.926 51.2791 58.0153C51.2791 56.7501 51.0052 56.4468 49.8327 56.4446C47.2739 56.4378 44.715 56.4378 42.1561 56.4446C41.0157 56.4468 40.7269 56.7547 40.7247 57.9452C40.7205 60.9124 40.7226 63.8773 40.7247 66.8446C40.7247 67.0867 40.7547 67.3266 40.7718 67.5801H51.2769L51.2791 67.5779ZM29.5242 67.5665C29.5242 66.5684 29.5242 65.6676 29.5242 64.7646C29.5242 59.9029 29.5242 55.0391 29.5242 50.1775C29.5242 49.6773 29.5649 49.2065 28.8588 49.2155C27.0723 49.2404 25.2837 49.2042 23.4993 49.2495C23.2789 49.254 22.9109 49.5731 22.881 49.7859C22.7975 50.4128 22.851 51.0601 22.851 51.755C23.6084 51.755 24.246 51.7459 24.8836 51.755C25.994 51.7731 26.7129 52.4272 26.7257 53.4163C26.7407 54.437 25.9983 55.1251 24.8493 55.1432C24.2139 55.1522 23.5785 55.1432 22.9131 55.1432V57.2368C23.6747 57.2368 24.3658 57.2119 25.0569 57.2435C26.0389 57.2865 26.7172 57.9927 26.7257 58.9297C26.7343 59.8962 26.0261 60.6 24.9991 60.6249C24.3145 60.6408 23.6277 60.6272 22.9109 60.6272V62.7593C23.6148 62.7593 24.2503 62.7479 24.8879 62.7615C26.009 62.7864 26.7172 63.436 26.7279 64.4273C26.7407 65.4481 26.0068 66.1248 24.8472 66.1474C24.2139 66.1588 23.5785 66.1474 22.9045 66.1474V67.5575H29.5242V67.5665ZM67.2914 67.562C67.2914 63.1033 67.2871 58.7509 67.2978 54.3985C67.2978 53.878 67.0432 53.801 66.6388 53.8033C65.4107 53.8169 64.1826 53.8463 62.9567 53.792C62.2956 53.7626 62.1522 54.0228 62.1565 54.6724C62.18 58.7441 62.1672 62.8181 62.1715 66.8898C62.1715 67.1071 62.2036 67.3244 62.2228 67.562H67.2914ZM65.8258 50.3721C65.7124 49.7836 65.7659 48.9937 65.4749 48.8059C65.0834 48.5524 64.3046 48.5705 63.9216 48.8398C63.6413 49.0367 63.7312 49.8244 63.652 50.3721H65.8258Z" stroke="#FD6F00" mask="url(#path-1-outside-1_1210_2813)"/>
</g>
<defs>
<filter id="filter0_d_1210_2813" x="0.5" y="0.5" width="91.001" height="79.0018" filterUnits="userSpaceOnUse" color-interpolation-filters="sRGB">
<feFlood flood-opacity="0" result="BackgroundImageFix"/>
<feColorMatrix in="SourceAlpha" type="matrix" values="0 0 0 0 0 0 0 0 0 0 0 0 0 0 0 0 0 0 127 0" result="hardAlpha"/>
<feOffset dy="4"/>
<feGaussianBlur stdDeviation="2"/>
<feComposite in2="hardAlpha" operator="out"/>
<feColorMatrix type="matrix" values="0 0 0 0 0 0 0 0 0 0 0 0 0 0 0 0 0 0 0.25 0"/>
<feBlend mode="normal" in2="BackgroundImageFix" result="effect1_dropShadow_1210_2813"/>
<feBlend mode="normal" in="SourceGraphic" in2="effect1_dropShadow_1210_2813" result="shape"/>
</filter>
</defs>
</svg>
